<svg width="414" height="218" viewBox="0 0 414 218" fill="none" xmlns="http://www.w3.org/2000/svg">
<circle cx="207" cy="109" r="109" fill="#99FF99"/>
<path d="M122.577 138V132.56L145.377 110.56C147.404 108.64 148.897 106.96 149.857 105.52C150.871 104.027 151.537 102.667 151.857 101.44C152.231 100.16 152.417 98.9333 152.417 97.76C152.417 94.88 151.404 92.6133 149.377 90.96C147.351 89.3067 144.391 88.48 140.497 88.48C137.511 88.48 134.817 88.9867 132.417 90C130.017 90.96 127.937 92.48 126.177 94.56L120.737 89.84C122.871 87.12 125.724 85.04 129.297 83.6C132.924 82.1067 136.897 81.36 141.217 81.36C145.111 81.36 148.497 82 151.377 83.28C154.257 84.5067 156.471 86.2933 158.017 88.64C159.617 90.9867 160.417 93.76 160.417 96.96C160.417 98.7733 160.177 100.56 159.697 102.32C159.217 104.08 158.311 105.947 156.977 107.92C155.644 109.893 153.724 112.107 151.217 114.56L130.897 134.16L128.977 131.04H162.817V138H122.577ZM192.197 138.64C187.823 138.64 183.903 137.52 180.437 135.28C177.023 133.04 174.303 129.787 172.277 125.52C170.303 121.253 169.317 116.08 169.317 110C169.317 103.92 170.303 98.7467 172.277 94.48C174.303 90.2133 177.023 86.96 180.437 84.72C183.903 82.48 187.823 81.36 192.197 81.36C196.517 81.36 200.41 82.48 203.877 84.72C207.343 86.96 210.063 90.2133 212.037 94.48C214.01 98.7467 214.997 103.92 214.997 110C214.997 116.08 214.01 121.253 212.037 125.52C210.063 129.787 207.343 133.04 203.877 135.28C200.41 137.52 196.517 138.64 192.197 138.64ZM192.197 131.52C195.13 131.52 197.69 130.72 199.877 129.12C202.117 127.52 203.85 125.12 205.077 121.92C206.357 118.72 206.997 114.747 206.997 110C206.997 105.253 206.357 101.28 205.077 98.08C203.85 94.88 202.117 92.48 199.877 90.88C197.69 89.28 195.13 88.48 192.197 88.48C189.263 88.48 186.677 89.28 184.437 90.88C182.197 92.48 180.437 94.88 179.157 98.08C177.93 101.28 177.317 105.253 177.317 110C177.317 114.747 177.93 118.72 179.157 121.92C180.437 125.12 182.197 127.52 184.437 129.12C186.677 130.72 189.263 131.52 192.197 131.52ZM221.796 138V132.56L244.596 110.56C246.623 108.64 248.116 106.96 249.076 105.52C250.089 104.027 250.756 102.667 251.076 101.44C251.449 100.16 251.636 98.9333 251.636 97.76C251.636 94.88 250.623 92.6133 248.596 90.96C246.569 89.3067 243.609 88.48 239.716 88.48C236.729 88.48 234.036 88.9867 231.636 90C229.236 90.96 227.156 92.48 225.396 94.56L219.956 89.84C222.089 87.12 224.943 85.04 228.516 83.6C232.143 82.1067 236.116 81.36 240.436 81.36C244.329 81.36 247.716 82 250.596 83.28C253.476 84.5067 255.689 86.2933 257.236 88.64C258.836 90.9867 259.636 93.76 259.636 96.96C259.636 98.7733 259.396 100.56 258.916 102.32C258.436 104.08 257.529 105.947 256.196 107.92C254.863 109.893 252.943 112.107 250.436 114.56L230.116 134.16L228.196 131.04H262.036V138H221.796ZM278.053 138V85.2L281.493 88.96H265.413V82H285.973V138H278.053Z" fill="#003B77"/>
<path d="M-95.4228 138V132.56L-72.6228 110.56C-70.5961 108.64 -69.1028 106.96 -68.1428 105.52C-67.1295 104.027 -66.4628 102.667 -66.1428 101.44C-65.7695 100.16 -65.5828 98.9333 -65.5828 97.76C-65.5828 94.88 -66.5961 92.6133 -68.6228 90.96C-70.6495 89.3067 -73.6095 88.48 -77.5028 88.48C-80.4895 88.48 -83.1828 88.9867 -85.5828 90C-87.9828 90.96 -90.0628 92.48 -91.8228 94.56L-97.2628 89.84C-95.1295 87.12 -92.2761 85.04 -88.7028 83.6C-85.0761 82.1067 -81.1028 81.36 -76.7828 81.36C-72.8895 81.36 -69.5028 82 -66.6228 83.28C-63.7428 84.5067 -61.5295 86.2933 -59.9828 88.64C-58.3828 90.9867 -57.5828 93.76 -57.5828 96.96C-57.5828 98.7733 -57.8228 100.56 -58.3028 102.32C-58.7828 104.08 -59.6895 105.947 -61.0228 107.92C-62.3561 109.893 -64.2761 112.107 -66.7828 114.56L-87.1028 134.16L-89.0228 131.04H-55.1828V138H-95.4228ZM-25.8034 138.64C-30.1768 138.64 -34.0968 137.52 -37.5634 135.28C-40.9768 133.04 -43.6968 129.787 -45.7234 125.52C-47.6968 121.253 -48.6834 116.08 -48.6834 110C-48.6834 103.92 -47.6968 98.7467 -45.7234 94.48C-43.6968 90.2133 -40.9768 86.96 -37.5634 84.72C-34.0968 82.48 -30.1768 81.36 -25.8034 81.36C-21.4834 81.36 -17.5901 82.48 -14.1234 84.72C-10.6568 86.96 -7.93677 90.2133 -5.96344 94.48C-3.9901 98.7467 -3.00344 103.92 -3.00344 110C-3.00344 116.08 -3.9901 121.253 -5.96344 125.52C-7.93677 129.787 -10.6568 133.04 -14.1234 135.28C-17.5901 137.52 -21.4834 138.64 -25.8034 138.64ZM-25.8034 131.52C-22.8701 131.52 -20.3101 130.72 -18.1234 129.12C-15.8834 127.52 -14.1501 125.12 -12.9234 121.92C-11.6434 118.72 -11.0034 114.747 -11.0034 110C-11.0034 105.253 -11.6434 101.28 -12.9234 98.08C-14.1501 94.88 -15.8834 92.48 -18.1234 90.88C-20.3101 89.28 -22.8701 88.48 -25.8034 88.48C-28.7368 88.48 -31.3234 89.28 -33.5634 90.88C-35.8034 92.48 -37.5634 94.88 -38.8434 98.08C-40.0701 101.28 -40.6834 105.253 -40.6834 110C-40.6834 114.747 -40.0701 118.72 -38.8434 121.92C-37.5634 125.12 -35.8034 127.52 -33.5634 129.12C-31.3234 130.72 -28.7368 131.52 -25.8034 131.52ZM3.79594 138V132.56L26.5959 110.56C28.6226 108.64 30.1159 106.96 31.0759 105.52C32.0893 104.027 32.7559 102.667 33.0759 101.44C33.4493 100.16 33.6359 98.9333 33.6359 97.76C33.6359 94.88 32.6226 92.6133 30.5959 90.96C28.5693 89.3067 25.6093 88.48 21.7159 88.48C18.7293 88.48 16.0359 88.9867 13.6359 90C11.2359 90.96 9.15594 92.48 7.39594 94.56L1.95594 89.84C4.08927 87.12 6.9426 85.04 10.5159 83.6C14.1426 82.1067 18.1159 81.36 22.4359 81.36C26.3293 81.36 29.7159 82 32.5959 83.28C35.4759 84.5067 37.6893 86.2933 39.2359 88.64C40.8359 90.9867 41.6359 93.76 41.6359 96.96C41.6359 98.7733 41.3959 100.56 40.9159 102.32C40.4359 104.08 39.5293 105.947 38.1959 107.92C36.8626 109.893 34.9426 112.107 32.4359 114.56L12.1159 134.16L10.1959 131.04H44.0359V138H3.79594ZM60.0534 138V85.2L63.4934 88.96H47.4134V82H67.9734V138H60.0534Z" fill="#F3F3F3"/>
<path d="M340.577 138V132.56L363.377 110.56C365.404 108.64 366.897 106.96 367.857 105.52C368.871 104.027 369.537 102.667 369.857 101.44C370.231 100.16 370.417 98.9333 370.417 97.76C370.417 94.88 369.404 92.6133 367.377 90.96C365.351 89.3067 362.391 88.48 358.497 88.48C355.511 88.48 352.817 88.9867 350.417 90C348.017 90.96 345.937 92.48 344.177 94.56L338.737 89.84C340.871 87.12 343.724 85.04 347.297 83.6C350.924 82.1067 354.897 81.36 359.217 81.36C363.111 81.36 366.497 82 369.377 83.28C372.257 84.5067 374.471 86.2933 376.017 88.64C377.617 90.9867 378.417 93.76 378.417 96.96C378.417 98.7733 378.177 100.56 377.697 102.32C377.217 104.08 376.311 105.947 374.977 107.92C373.644 109.893 371.724 112.107 369.217 114.56L348.897 134.16L346.977 131.04H380.817V138H340.577ZM410.197 138.64C405.823 138.64 401.903 137.52 398.437 135.28C395.023 133.04 392.303 129.787 390.277 125.52C388.303 121.253 387.317 116.08 387.317 110C387.317 103.92 388.303 98.7467 390.277 94.48C392.303 90.2133 395.023 86.96 398.437 84.72C401.903 82.48 405.823 81.36 410.197 81.36C414.517 81.36 418.41 82.48 421.877 84.72C425.343 86.96 428.063 90.2133 430.037 94.48C432.01 98.7467 432.997 103.92 432.997 110C432.997 116.08 432.01 121.253 430.037 125.52C428.063 129.787 425.343 133.04 421.877 135.28C418.41 137.52 414.517 138.64 410.197 138.64ZM410.197 131.52C413.13 131.52 415.69 130.72 417.877 129.12C420.117 127.52 421.85 125.12 423.077 121.92C424.357 118.72 424.997 114.747 424.997 110C424.997 105.253 424.357 101.28 423.077 98.08C421.85 94.88 420.117 92.48 417.877 90.88C415.69 89.28 413.13 88.48 410.197 88.48C407.263 88.48 404.677 89.28 402.437 90.88C400.197 92.48 398.437 94.88 397.157 98.08C395.93 101.28 395.317 105.253 395.317 110C395.317 114.747 395.93 118.72 397.157 121.92C398.437 125.12 400.197 127.52 402.437 129.12C404.677 130.72 407.263 131.52 410.197 131.52ZM439.796 138V132.56L462.596 110.56C464.623 108.64 466.116 106.96 467.076 105.52C468.089 104.027 468.756 102.667 469.076 101.44C469.449 100.16 469.636 98.9333 469.636 97.76C469.636 94.88 468.623 92.6133 466.596 90.96C464.569 89.3067 461.609 88.48 457.716 88.48C454.729 88.48 452.036 88.9867 449.636 90C447.236 90.96 445.156 92.48 443.396 94.56L437.956 89.84C440.089 87.12 442.943 85.04 446.516 83.6C450.143 82.1067 454.116 81.36 458.436 81.36C462.329 81.36 465.716 82 468.596 83.28C471.476 84.5067 473.689 86.2933 475.236 88.64C476.836 90.9867 477.636 93.76 477.636 96.96C477.636 98.7733 477.396 100.56 476.916 102.32C476.436 104.08 475.529 105.947 474.196 107.92C472.863 109.893 470.943 112.107 468.436 114.56L448.116 134.16L446.196 131.04H480.036V138H439.796ZM496.053 138V85.2L499.493 88.96H483.413V82H503.973V138H496.053Z" fill="#F3F3F3"/>
</svg>
