<svg width="549" height="692" viewBox="0 0 549 692" fill="none" xmlns="http://www.w3.org/2000/svg">
<circle cx="350" cy="346" r="199" fill="#99FF99"/>
<path d="M255.4 212V198.4L312.4 143.4C317.467 138.6 321.2 134.4 323.6 130.8C326.133 127.067 327.8 123.667 328.6 120.6C329.533 117.4 330 114.333 330 111.4C330 104.2 327.467 98.5333 322.4 94.4C317.333 90.2667 309.933 88.2 300.2 88.2C292.733 88.2 286 89.4667 280 92C274 94.4 268.8 98.2 264.4 103.4L250.8 91.6C256.133 84.8 263.267 79.6 272.2 76C281.267 72.2667 291.2 70.4 302 70.4C311.733 70.4 320.2 72 327.4 75.2C334.6 78.2667 340.133 82.7333 344 88.6C348 94.4667 350 101.4 350 109.4C350 113.933 349.4 118.4 348.2 122.8C347 127.2 344.733 131.867 341.4 136.8C338.067 141.733 333.267 147.267 327 153.4L276.2 202.4L271.4 194.6H356V212H255.4ZM429.448 213.6C418.515 213.6 408.715 210.8 400.048 205.2C391.515 199.6 384.715 191.467 379.648 180.8C374.715 170.133 372.248 157.2 372.248 142C372.248 126.8 374.715 113.867 379.648 103.2C384.715 92.5333 391.515 84.4 400.048 78.8C408.715 73.2 418.515 70.4 429.448 70.4C440.248 70.4 449.982 73.2 458.648 78.8C467.315 84.4 474.115 92.5333 479.048 103.2C483.982 113.867 486.448 126.8 486.448 142C486.448 157.2 483.982 170.133 479.048 180.8C474.115 191.467 467.315 199.6 458.648 205.2C449.982 210.8 440.248 213.6 429.448 213.6ZM429.448 195.8C436.782 195.8 443.182 193.8 448.648 189.8C454.248 185.8 458.582 179.8 461.648 171.8C464.848 163.8 466.448 153.867 466.448 142C466.448 130.133 464.848 120.2 461.648 112.2C458.582 104.2 454.248 98.2 448.648 94.2C443.182 90.2 436.782 88.2 429.448 88.2C422.115 88.2 415.648 90.2 410.048 94.2C404.448 98.2 400.048 104.2 396.848 112.2C393.782 120.2 392.248 130.133 392.248 142C392.248 153.867 393.782 163.8 396.848 171.8C400.048 179.8 404.448 185.8 410.048 189.8C415.648 193.8 422.115 195.8 429.448 195.8Z" fill="#F3F3F3"/>
<path d="M255.4 624V610.4L312.4 555.4C317.467 550.6 321.2 546.4 323.6 542.8C326.133 539.067 327.8 535.667 328.6 532.6C329.533 529.4 330 526.333 330 523.4C330 516.2 327.467 510.533 322.4 506.4C317.333 502.267 309.933 500.2 300.2 500.2C292.733 500.2 286 501.467 280 504C274 506.4 268.8 510.2 264.4 515.4L250.8 503.6C256.133 496.8 263.267 491.6 272.2 488C281.267 484.267 291.2 482.4 302 482.4C311.733 482.4 320.2 484 327.4 487.2C334.6 490.267 340.133 494.733 344 500.6C348 506.467 350 513.4 350 521.4C350 525.933 349.4 530.4 348.2 534.8C347 539.2 344.733 543.867 341.4 548.8C338.067 553.733 333.267 559.267 327 565.4L276.2 614.4L271.4 606.6H356V624H255.4ZM370.244 624V610.4L427.244 555.4C432.31 550.6 436.044 546.4 438.444 542.8C440.977 539.067 442.644 535.667 443.444 532.6C444.377 529.4 444.844 526.333 444.844 523.4C444.844 516.2 442.31 510.533 437.244 506.4C432.177 502.267 424.777 500.2 415.044 500.2C407.577 500.2 400.844 501.467 394.844 504C388.844 506.4 383.644 510.2 379.244 515.4L365.644 503.6C370.977 496.8 378.11 491.6 387.044 488C396.11 484.267 406.044 482.4 416.844 482.4C426.577 482.4 435.044 484 442.244 487.2C449.444 490.267 454.977 494.733 458.844 500.6C462.844 506.467 464.844 513.4 464.844 521.4C464.844 525.933 464.244 530.4 463.044 534.8C461.844 539.2 459.577 543.867 456.244 548.8C452.91 553.733 448.11 559.267 441.844 565.4L391.044 614.4L386.244 606.6H470.844V624H370.244Z" fill="#F3F3F3"/>
<path d="M7.4 418V404.4L64.4 349.4C69.4667 344.6 73.2 340.4 75.6 336.8C78.1333 333.067 79.8 329.667 80.6 326.6C81.5333 323.4 82 320.333 82 317.4C82 310.2 79.4667 304.533 74.4 300.4C69.3333 296.267 61.9333 294.2 52.2 294.2C44.7333 294.2 38 295.467 32 298C26 300.4 20.8 304.2 16.4 309.4L2.8 297.6C8.13333 290.8 15.2667 285.6 24.2 282C33.2667 278.267 43.2 276.4 54 276.4C63.7333 276.4 72.2 278 79.4 281.2C86.6 284.267 92.1333 288.733 96 294.6C100 300.467 102 307.4 102 315.4C102 319.933 101.4 324.4 100.2 328.8C99 333.2 96.7333 337.867 93.4 342.8C90.0667 347.733 85.2667 353.267 79 359.4L28.2 408.4L23.4 400.6H108V418H7.4ZM181.448 419.6C170.515 419.6 160.715 416.8 152.048 411.2C143.515 405.6 136.715 397.467 131.648 386.8C126.715 376.133 124.248 363.2 124.248 348C124.248 332.8 126.715 319.867 131.648 309.2C136.715 298.533 143.515 290.4 152.048 284.8C160.715 279.2 170.515 276.4 181.448 276.4C192.248 276.4 201.982 279.2 210.648 284.8C219.315 290.4 226.115 298.533 231.048 309.2C235.982 319.867 238.448 332.8 238.448 348C238.448 363.2 235.982 376.133 231.048 386.8C226.115 397.467 219.315 405.6 210.648 411.2C201.982 416.8 192.248 419.6 181.448 419.6ZM181.448 401.8C188.782 401.8 195.182 399.8 200.648 395.8C206.248 391.8 210.582 385.8 213.648 377.8C216.848 369.8 218.448 359.867 218.448 348C218.448 336.133 216.848 326.2 213.648 318.2C210.582 310.2 206.248 304.2 200.648 300.2C195.182 296.2 188.782 294.2 181.448 294.2C174.115 294.2 167.648 296.2 162.048 300.2C156.448 304.2 152.048 310.2 148.848 318.2C145.782 326.2 144.248 336.133 144.248 348C144.248 359.867 145.782 369.8 148.848 377.8C152.048 385.8 156.448 391.8 162.048 395.8C167.648 399.8 174.115 401.8 181.448 401.8ZM255.447 418V404.4L312.447 349.4C317.514 344.6 321.247 340.4 323.647 336.8C326.18 333.067 327.847 329.667 328.647 326.6C329.58 323.4 330.047 320.333 330.047 317.4C330.047 310.2 327.514 304.533 322.447 300.4C317.38 296.267 309.98 294.2 300.247 294.2C292.78 294.2 286.047 295.467 280.047 298C274.047 300.4 268.847 304.2 264.447 309.4L250.847 297.6C256.18 290.8 263.314 285.6 272.247 282C281.314 278.267 291.247 276.4 302.047 276.4C311.78 276.4 320.247 278 327.447 281.2C334.647 284.267 340.18 288.733 344.047 294.6C348.047 300.467 350.047 307.4 350.047 315.4C350.047 319.933 349.447 324.4 348.247 328.8C347.047 333.2 344.78 337.867 341.447 342.8C338.114 347.733 333.314 353.267 327.047 359.4L276.247 408.4L271.447 400.6H356.047V418H255.447ZM396.091 418V286L404.691 295.4H364.491V278H415.891V418H396.091Z" fill="#003B77"/>
</svg>
