<?xml version="1.0" standalone="no"?>
<!DOCTYPE svg PUBLIC "-//W3C//DTD SVG 20010904//EN"
 "http://www.w3.org/TR/2001/REC-SVG-20010904/DTD/svg10.dtd">
<svg version="1.0" xmlns="http://www.w3.org/2000/svg"
 width="700.000000pt" height="700.000000pt" viewBox="0 0 700.000000 700.000000"
 preserveAspectRatio="xMidYMid meet">
<metadata>
Created by potrace 1.14, written by Peter Selinger 2001-2017
</metadata>
<g transform="translate(0.000000,700.000000) scale(0.100000,-0.100000)"
fill="#000000" stroke="none">
<path d="M0 4405 l0 -2595 1730 0 c952 0 1731 3 1731 8 1 4 2 170 3 369 1 236
-2 364 -9 366 -5 2 -625 3 -1377 3 -906 -1 -1369 2 -1371 9 -3 9 -1 580 2 598
0 4 1239 7 2751 7 2193 0 2750 -3 2751 -12 1 -7 2 -534 3 -1171 l1 -1157
-3107 0 -3108 0 0 -373 0 -373 3458 1 3457 0 3 2593 c1 1425 -1 2592 -5 2593
-31 4 -3453 3 -3454 -1 -1 -3 -2 -170 -3 -372 l-1 -368 1377 0 c758 0 1378 -3
1379 -7 3 -21 5 -589 2 -598 -2 -7 -925 -10 -2756 -10 l-2752 0 0 1168 c0
1161 0 1167 20 1168 11 1 1408 2 3105 3 l3085 1 3 373 2 372 -3460 0 -3460 0
0 -2595z"/>
<path d="M3460 6126 l0 -43 1730 0 1730 0 0 43 0 44 -1730 0 -1730 0 0 -44z"/>
<path d="M3465 5981 c-3 -2 -5 -22 -5 -43 l0 -38 1730 0 1730 0 0 43 0 43
-1725 0 c-949 0 -1728 -2 -1730 -5z"/>
<path d="M3464 5801 c-2 -2 -4 -22 -4 -43 l0 -38 275 0 c151 -1 790 -1 1420
-1 630 0 1285 0 1455 1 l310 0 0 43 0 42 -1726 0 c-949 0 -1727 -2 -1730 -4z"/>
<path d="M3522 5642 l-63 -3 3 -42 3 -42 1725 0 1725 0 3 43 3 42 -68 0
c-2407 4 -3280 4 -3331 2z"/>
<path d="M3460 5417 l0 -44 1730 0 1730 0 0 44 0 43 -1730 0 -1730 0 0 -43z"/>
<path d="M3 1678 l2 -43 1724 0 c1701 -1 1723 -1 1730 19 4 10 6 30 3 43 l-4
23 -1728 0 -1728 0 1 -42z"/>
<path d="M4 1497 l1 -42 1728 -2 1727 -1 0 44 0 43 -1729 0 -1728 0 1 -42z"/>
<path d="M6 1351 c-2 -3 -3 -22 -2 -41 l1 -35 1728 -3 1727 -2 0 43 0 44
-1725 0 c-949 0 -1727 -3 -1729 -6z"/>
<path d="M38 1192 c-36 -3 -37 -5 -36 -38 1 -19 6 -38 11 -41 8 -5 3334 -8
3430 -4 13 1 17 10 17 41 0 31 -4 40 -17 41 -68 2 -3376 3 -3405 1z"/>
<path d="M3 968 l0 -43 1729 0 1728 0 0 42 0 43 -1729 0 -1729 0 1 -42z"/>
</g>
</svg>
